<svg width="792" height="1080" viewBox="0 0 792 1080" fill="none" xmlns="http://www.w3.org/2000/svg">
<g filter="url(#filter0_f_28_6)">
<path d="M9.32439 -10.0947C8.7198 -11.9307 6.7413 -12.929 4.90528 -12.3244C3.06927 -11.7198 2.07101 -9.7413 2.67561 -7.90528L9.32439 -10.0947ZM604.5 758L601.001 757.898L604.5 758ZM2.67561 -7.90528C14.1674 26.9927 45.2342 87.402 95.6195 147.413C146.029 207.453 215.956 267.309 305.272 300.777L307.728 294.223C219.844 261.291 150.854 202.314 100.98 142.912C51.0825 83.4813 20.4992 23.8407 9.32439 -10.0947L2.67561 -7.90528ZM305.272 300.777C392.785 333.57 467.696 415.816 520.332 506.284C572.977 596.768 602.851 694.633 601.001 757.898L607.999 758.102C609.901 693.031 579.376 593.846 526.382 502.764C473.38 411.665 397.415 327.83 307.728 294.223L305.272 300.777ZM601.001 757.898C598.475 844.316 624.807 902.429 663.628 951.594C682.978 976.099 705.412 998.361 728.782 1020.74C752.198 1043.16 776.526 1065.68 799.936 1090.88L805.064 1086.12C781.474 1060.72 756.927 1038 733.624 1015.68C710.275 993.326 688.147 971.351 669.122 947.256C631.193 899.221 605.525 842.684 607.999 758.102L601.001 757.898Z" fill="url(#paint0_linear_28_6)"/>
</g>
<defs>
<filter id="filter0_f_28_6" x="0.499023" y="-14.5009" width="806.565" height="1107.38" filterUnits="userSpaceOnUse" color-interpolation-filters="sRGB">
<feFlood flood-opacity="0" result="BackgroundImageFix"/>
<feBlend mode="normal" in="SourceGraphic" in2="BackgroundImageFix" result="shape"/>
<feGaussianBlur stdDeviation="1" result="effect1_foregroundBlur_28_6"/>
</filter>
<linearGradient id="paint0_linear_28_6" x1="36.5" y1="64" x2="759" y2="1064.5" gradientUnits="userSpaceOnUse">
<stop stop-color="#6802B9" stop-opacity="0.77"/>
<stop offset="1" stop-color="#BE0606" stop-opacity="0.47"/>
</linearGradient>
</defs>
</svg>